<?xml version="1.0" standalone="no"?>
<!DOCTYPE svg PUBLIC "-//W3C//DTD SVG 20010904//EN"
 "http://www.w3.org/TR/2001/REC-SVG-20010904/DTD/svg10.dtd">
<svg version="1.0" xmlns="http://www.w3.org/2000/svg"
 width="202.000000pt" height="202.000000pt" viewBox="0 0 202.000000 202.000000"
 preserveAspectRatio="xMidYMid meet">

<g transform="translate(0.000000,202.000000) scale(0.100000,-0.100000)"
fill="#00dc82" stroke="none">
<path d="M0 1010 l0 -1010 995 0 996 0 -3 138 -3 137 -847 3 -848 2 0 715 0
715 850 0 851 0 -3 153 -3 152 -992 3 -993 2 0 -1010z"/>
<path d="M1650 1639 c-190 -19 -572 -39 -857 -45 l-301 -7 -5 -371 c-5 -395
-9 -437 -62 -621 -15 -49 -44 -128 -66 -174 -21 -46 -39 -88 -39 -93 0 -5 75
-7 167 -6 l168 3 27 73 c40 103 76 250 91 372 l13 105 237 3 237 2 2 -277 3
-278 148 -3 147 -3 0 281 0 280 195 0 196 0 -3 143 -3 142 -577 3 -578 2 0 70
0 70 83 0 c150 0 747 38 885 56 l42 5 0 140 0 139 -32 -1 c-18 -1 -71 -5 -118
-10z"/>
</g>
</svg>
